<svg role="none" aria-hidden="true" class="artdeco-button__icon" xmlns="http://www.w3.org/2000/svg" width="24" height="24" viewBox="0 0 24 24" data-supported-dps="24x24" data-test-icon="thumbs-up-outline-medium">
  <path fill="currentColor" d="M20.6 7.6c-.3-.3-.7-.4-1.1-.2-.4.1-.7.4-.8.8v.1c-.1.3-.1.7-.1 1.1V15c0 .6-.5 1-1 1h-5.5v5.5c0 .6-.5 1-1 1s-1-.5-1-1V16H6c-.6 0-1-.5-1-1V9c0-.3 0-.7.1-1v-.1c.1-.4.4-.7.8-.8h13.6c.4-.1.8 0 1.1.2.3.3.4.7.3 1.1l-.9 5.5c0 .2-.2.4-.4.4H12.5c-.6 0-1-.5-1-1v-1c0-.6.5-1 1-1h5.5l.8-4.8c.1-.4 0-.8-.3-1z"/>
</svg>
